<svg width="37" height="36" viewBox="0 0 37 36" fill="none" xmlns="http://www.w3.org/2000/svg">
<path d="M4.87667 4.66665H11.56V1.33331H1.54333V11.3333H4.87667V4.66665ZM4.87667 24.6666H1.54333V34.6666H11.56V31.3333H4.87667V24.6666ZM31.5433 31.3333H24.8767V34.6666H34.8767V24.6666H31.5433V31.3333ZM24.8767 4.66665H31.5433V11.3333H34.8767V1.33331H24.8767V4.66665Z" fill="#94C41C"/>
<path d="M6.54333 16.3333H16.5433V6.33331H6.54333V16.3333ZM9.87667 9.66665H13.21V13H9.87667V9.66665ZM6.54333 29.6666H16.5433V19.6666H6.54333V29.6666ZM9.87667 23H13.21V26.3333H9.87667V23ZM29.8767 6.33331H19.8767V16.3333H29.8767V6.33331ZM26.5433 13H23.21V9.66665H26.5433V13ZM19.8933 19.6666H23.2267V23H19.8933V19.6666ZM23.2267 23H26.56V26.3333H23.2267V23ZM26.56 26.3333H29.8933V29.6666H26.56V26.3333ZM26.56 19.6666H29.8933V23H26.56V19.6666Z" fill="#94C41C"/>
</svg>
